<svg xmlns="http://www.w3.org/2000/svg" xmlns:xlink="http://www.w3.org/1999/xlink" width="500" zoomAndPan="magnify" viewBox="0 0 375 374.999991" height="500" preserveAspectRatio="xMidYMid meet" version="1.0"><defs><g/><clipPath id="d0278d5633"><path d="M 168 177 L 179 177 L 179 206 L 168 206 Z M 168 177 " clip-rule="nonzero"/></clipPath><clipPath id="a4d7f5ef91"><path d="M 164.46875 180.6875 L 175.25 177.476562 L 182.738281 202.636719 L 171.957031 205.84375 Z M 164.46875 180.6875 " clip-rule="nonzero"/></clipPath><clipPath id="c4f502b7b8"><path d="M 164.46875 180.6875 L 175.25 177.476562 L 182.738281 202.636719 L 171.957031 205.84375 Z M 164.46875 180.6875 " clip-rule="nonzero"/></clipPath></defs><g fill="#000000" fill-opacity="1"><g transform="translate(75.116225, 204.453396)"><g><path d="M 20.65625 -1.046875 C 19.894531 -0.566406 18.96875 -0.203125 17.875 0.046875 C 16.78125 0.296875 15.617188 0.421875 14.390625 0.421875 C 11.023438 0.421875 8.441406 -0.398438 6.640625 -2.046875 C 4.835938 -3.691406 3.9375 -6.144531 3.9375 -9.40625 L 3.9375 -18.03125 L 0.1875 -18.03125 L 0.1875 -24.78125 L 3.9375 -24.78125 L 3.9375 -31.46875 L 12.953125 -31.46875 L 12.953125 -24.78125 L 18.84375 -24.78125 L 18.84375 -18.03125 L 12.953125 -18.03125 L 12.953125 -9.5 C 12.953125 -8.570312 13.195312 -7.847656 13.6875 -7.328125 C 14.1875 -6.804688 14.847656 -6.546875 15.671875 -6.546875 C 16.710938 -6.546875 17.628906 -6.816406 18.421875 -7.359375 Z M 20.65625 -1.046875 "/></g></g></g><g fill="#000000" fill-opacity="1"><g transform="translate(91.493233, 204.453396)"><g><path d="M 19.65625 -26.15625 C 22.851562 -26.15625 25.421875 -25.203125 27.359375 -23.296875 C 29.304688 -21.398438 30.28125 -18.539062 30.28125 -14.71875 L 30.28125 0 L 21.265625 0 L 21.265625 -13.25 C 21.265625 -16.757812 19.859375 -18.515625 17.046875 -18.515625 C 15.492188 -18.515625 14.25 -18.003906 13.3125 -16.984375 C 12.382812 -15.972656 11.921875 -14.457031 11.921875 -12.4375 L 11.921875 0 L 2.890625 0 L 2.890625 -35.21875 L 11.921875 -35.21875 L 11.921875 -23.359375 C 12.898438 -24.273438 14.050781 -24.96875 15.375 -25.4375 C 16.707031 -25.914062 18.132812 -26.15625 19.65625 -26.15625 Z M 19.65625 -26.15625 "/></g></g></g><g fill="#000000" fill-opacity="1"><g transform="translate(119.690182, 204.453396)"><g><path d="M 29.1875 -12.8125 C 29.1875 -12.75 29.140625 -12.003906 29.046875 -10.578125 L 10.34375 -10.578125 C 10.726562 -9.253906 11.460938 -8.234375 12.546875 -7.515625 C 13.640625 -6.804688 15.007812 -6.453125 16.65625 -6.453125 C 17.894531 -6.453125 18.960938 -6.625 19.859375 -6.96875 C 20.765625 -7.320312 21.675781 -7.894531 22.59375 -8.6875 L 27.34375 -3.75 C 24.84375 -0.96875 21.1875 0.421875 16.375 0.421875 C 13.363281 0.421875 10.71875 -0.144531 8.4375 -1.28125 C 6.164062 -2.414062 4.40625 -3.992188 3.15625 -6.015625 C 1.90625 -8.046875 1.28125 -10.34375 1.28125 -12.90625 C 1.28125 -15.4375 1.890625 -17.707031 3.109375 -19.71875 C 4.328125 -21.726562 6.007812 -23.300781 8.15625 -24.4375 C 10.3125 -25.582031 12.734375 -26.15625 15.421875 -26.15625 C 17.984375 -26.15625 20.304688 -25.625 22.390625 -24.5625 C 24.484375 -23.5 26.140625 -21.960938 27.359375 -19.953125 C 28.578125 -17.953125 29.1875 -15.570312 29.1875 -12.8125 Z M 15.46875 -19.75 C 14.082031 -19.75 12.921875 -19.351562 11.984375 -18.5625 C 11.046875 -17.769531 10.453125 -16.691406 10.203125 -15.328125 L 20.75 -15.328125 C 20.488281 -16.691406 19.890625 -17.769531 18.953125 -18.5625 C 18.023438 -19.351562 16.863281 -19.75 15.46875 -19.75 Z M 15.46875 -19.75 "/></g></g></g><g fill="#000000" fill-opacity="1"><g transform="translate(145.32377, 204.453396)"><g><path d="M 13.859375 -26.15625 C 18.128906 -26.15625 21.390625 -25.179688 23.640625 -23.234375 C 25.890625 -21.285156 27.015625 -18.300781 27.015625 -14.28125 L 27.015625 0 L 18.609375 0 L 18.609375 -3.328125 C 17.304688 -0.828125 14.773438 0.421875 11.015625 0.421875 C 9.015625 0.421875 7.285156 0.078125 5.828125 -0.609375 C 4.378906 -1.304688 3.28125 -2.25 2.53125 -3.4375 C 1.789062 -4.625 1.421875 -5.976562 1.421875 -7.5 C 1.421875 -9.9375 2.351562 -11.828125 4.21875 -13.171875 C 6.09375 -14.515625 8.972656 -15.1875 12.859375 -15.1875 L 17.984375 -15.1875 C 17.828125 -17.90625 16.007812 -19.265625 12.53125 -19.265625 C 11.300781 -19.265625 10.050781 -19.066406 8.78125 -18.671875 C 7.519531 -18.273438 6.441406 -17.734375 5.546875 -17.046875 L 2.515625 -23.171875 C 3.941406 -24.117188 5.675781 -24.851562 7.71875 -25.375 C 9.757812 -25.894531 11.804688 -26.15625 13.859375 -26.15625 Z M 13.53125 -5.265625 C 14.570312 -5.265625 15.488281 -5.515625 16.28125 -6.015625 C 17.070312 -6.523438 17.640625 -7.273438 17.984375 -8.265625 L 17.984375 -10.484375 L 14.09375 -10.484375 C 11.46875 -10.484375 10.15625 -9.613281 10.15625 -7.875 C 10.15625 -7.082031 10.457031 -6.445312 11.0625 -5.96875 C 11.664062 -5.5 12.488281 -5.265625 13.53125 -5.265625 Z M 13.53125 -5.265625 "/></g></g></g><g fill="#000000" fill-opacity="1"><g transform="translate(170.292787, 204.453396)"><g><path d="M 19.65625 -26.15625 C 22.851562 -26.15625 25.421875 -25.203125 27.359375 -23.296875 C 29.304688 -21.398438 30.28125 -18.539062 30.28125 -14.71875 L 30.28125 0 L 21.265625 0 L 21.265625 -13.25 C 21.265625 -16.757812 19.859375 -18.515625 17.046875 -18.515625 C 15.492188 -18.515625 14.25 -18.003906 13.3125 -16.984375 C 12.382812 -15.972656 11.921875 -14.457031 11.921875 -12.4375 L 11.921875 0 L 2.890625 0 L 2.890625 -35.21875 L 11.921875 -35.21875 L 11.921875 -23.359375 C 12.898438 -24.273438 14.050781 -24.96875 15.375 -25.4375 C 16.707031 -25.914062 18.132812 -26.15625 19.65625 -26.15625 Z M 19.65625 -26.15625 "/></g></g></g><g fill="#000000" fill-opacity="1"><g transform="translate(198.48974, 204.453396)"><g><path d="M 36.40625 -26.15625 C 39.570312 -26.15625 42.09375 -25.203125 43.96875 -23.296875 C 45.851562 -21.398438 46.796875 -18.539062 46.796875 -14.71875 L 46.796875 0 L 37.78125 0 L 37.78125 -13.25 C 37.78125 -15.050781 37.441406 -16.378906 36.765625 -17.234375 C 36.085938 -18.085938 35.128906 -18.515625 33.890625 -18.515625 C 32.523438 -18.515625 31.429688 -18.039062 30.609375 -17.09375 C 29.796875 -16.144531 29.390625 -14.703125 29.390625 -12.765625 L 29.390625 0 L 20.359375 0 L 20.359375 -13.25 C 20.359375 -16.757812 19.0625 -18.515625 16.46875 -18.515625 C 15.082031 -18.515625 13.976562 -18.039062 13.15625 -17.09375 C 12.332031 -16.144531 11.921875 -14.703125 11.921875 -12.765625 L 11.921875 0 L 2.890625 0 L 2.890625 -25.734375 L 11.484375 -25.734375 L 11.484375 -23.015625 C 12.429688 -24.066406 13.5625 -24.851562 14.875 -25.375 C 16.1875 -25.894531 17.617188 -26.15625 19.171875 -26.15625 C 20.984375 -26.15625 22.597656 -25.820312 24.015625 -25.15625 C 25.441406 -24.488281 26.597656 -23.476562 27.484375 -22.125 C 28.492188 -23.414062 29.773438 -24.410156 31.328125 -25.109375 C 32.878906 -25.804688 34.570312 -26.15625 36.40625 -26.15625 Z M 36.40625 -26.15625 "/></g></g></g><g fill="#000000" fill-opacity="1"><g transform="translate(243.253583, 204.453396)"><g><path d="M 13.859375 -26.15625 C 18.128906 -26.15625 21.390625 -25.179688 23.640625 -23.234375 C 25.890625 -21.285156 27.015625 -18.300781 27.015625 -14.28125 L 27.015625 0 L 18.609375 0 L 18.609375 -3.328125 C 17.304688 -0.828125 14.773438 0.421875 11.015625 0.421875 C 9.015625 0.421875 7.285156 0.078125 5.828125 -0.609375 C 4.378906 -1.304688 3.28125 -2.25 2.53125 -3.4375 C 1.789062 -4.625 1.421875 -5.976562 1.421875 -7.5 C 1.421875 -9.9375 2.351562 -11.828125 4.21875 -13.171875 C 6.09375 -14.515625 8.972656 -15.1875 12.859375 -15.1875 L 17.984375 -15.1875 C 17.828125 -17.90625 16.007812 -19.265625 12.53125 -19.265625 C 11.300781 -19.265625 10.050781 -19.066406 8.78125 -18.671875 C 7.519531 -18.273438 6.441406 -17.734375 5.546875 -17.046875 L 2.515625 -23.171875 C 3.941406 -24.117188 5.675781 -24.851562 7.71875 -25.375 C 9.757812 -25.894531 11.804688 -26.15625 13.859375 -26.15625 Z M 13.53125 -5.265625 C 14.570312 -5.265625 15.488281 -5.515625 16.28125 -6.015625 C 17.070312 -6.523438 17.640625 -7.273438 17.984375 -8.265625 L 17.984375 -10.484375 L 14.09375 -10.484375 C 11.46875 -10.484375 10.15625 -9.613281 10.15625 -7.875 C 10.15625 -7.082031 10.457031 -6.445312 11.0625 -5.96875 C 11.664062 -5.5 12.488281 -5.265625 13.53125 -5.265625 Z M 13.53125 -5.265625 "/></g></g></g><g fill="#000000" fill-opacity="1"><g transform="translate(268.222604, 204.453396)"><g><path d="M 30.234375 -35.21875 L 30.234375 0 L 21.640625 0 L 21.640625 -2.5625 C 19.960938 -0.570312 17.445312 0.421875 14.09375 0.421875 C 11.75 0.421875 9.613281 -0.117188 7.6875 -1.203125 C 5.757812 -2.296875 4.234375 -3.851562 3.109375 -5.875 C 1.984375 -7.90625 1.421875 -10.25 1.421875 -12.90625 C 1.421875 -15.570312 1.984375 -17.90625 3.109375 -19.90625 C 4.234375 -21.914062 5.757812 -23.457031 7.6875 -24.53125 C 9.613281 -25.613281 11.75 -26.15625 14.09375 -26.15625 C 17.164062 -26.15625 19.539062 -25.269531 21.21875 -23.5 L 21.21875 -35.21875 Z M 16 -6.734375 C 17.550781 -6.734375 18.832031 -7.28125 19.84375 -8.375 C 20.851562 -9.46875 21.359375 -10.976562 21.359375 -12.90625 C 21.359375 -14.8125 20.859375 -16.300781 19.859375 -17.375 C 18.867188 -18.445312 17.582031 -18.984375 16 -18.984375 C 14.414062 -18.984375 13.113281 -18.445312 12.09375 -17.375 C 11.082031 -16.300781 10.578125 -14.8125 10.578125 -12.90625 C 10.578125 -10.976562 11.082031 -9.46875 12.09375 -8.375 C 13.113281 -7.28125 14.414062 -6.734375 16 -6.734375 Z M 16 -6.734375 "/></g></g></g><g clip-path="url(#d0278d5633)"><g clip-path="url(#a4d7f5ef91)"><g clip-path="url(#c4f502b7b8)"><path fill="#ffffff" d="M 178.042969 187.308594 L 173.046875 188.792969 L 174.960938 177.667969 L 169.488281 179.296875 L 168.238281 193.363281 L 172.847656 191.988281 L 173.078125 205.40625 Z M 178.042969 187.308594 " fill-opacity="1" fill-rule="nonzero"/></g></g></g></svg>